<?xml version="1.0" encoding="UTF-8"?>
<svg width="40px" height="38px" viewBox="0 0 40 38" version="1.1" xmlns="http://www.w3.org/2000/svg" xmlns:xlink="http://www.w3.org/1999/xlink">
    <!-- Generator: Sketch 52.2 (67145) - http://www.bohemiancoding.com/sketch -->
    <title>分组@2x</title>
    <desc>Created with Sketch.</desc>
    <defs>
        <polygon id="path-1" points="0 0.436627451 28.1236909 0.436627451 28.1236909 37.254902 0 37.254902"></polygon>
    </defs>
    <g id="Page-1" stroke="none" stroke-width="1" fill="none" fill-rule="evenodd">
        <g id="首页000" transform="translate(-340.000000, -20.000000)">
            <g id="分组" transform="translate(340.000000, 20.000000)">
                <g transform="translate(0.000000, 0.308769)">
                    <mask id="mask-2" fill="white">
                        <use xlink:href="#path-1"></use>
                    </mask>
                    <g id="Clip-2"></g>
                    <path d="M28.1176119,0.781533333 C28.0989552,0.630278431 28.0220896,0.533415686 27.8773134,0.477533333 C27.8504478,0.467101961 27.8235821,0.45592549 27.7967164,0.445494118 L27.7743284,0.436552941 L27.4459701,0.436552941 C27.3191045,0.464866667 27.1922388,0.49392549 27.0661194,0.522984314 C26.7877612,0.587062745 26.4997015,0.654121569 26.2153731,0.71447451 C25.1631343,0.938003922 24.0832836,1.04529804 23.04,1.14886667 L22.6138806,1.19208235 C21.8885075,1.26510196 21.1504478,1.28074902 20.4362687,1.29490588 C20.2026866,1.29937647 19.9683582,1.30459216 19.7347761,1.31129804 C18.1452239,1.35674902 16.4414925,1.38059216 14.3735821,1.38506275 C12.8989552,1.38804314 11.3250746,1.33216078 9.25940299,1.20474902 C8.85940299,1.18016078 8.4519403,1.16227843 8.05865672,1.14365098 C7.26238806,1.10863137 6.43850746,1.07212157 5.62880597,0.978984314 C4.87283582,0.891062745 4.20716418,0.879141176 3.59447761,0.939494118 C2.51985075,1.04604314 1.61686567,1.5929451 0.984776119,2.51984706 L0.963134328,2.55114118 C0.637014925,3.03023922 0.299701493,3.52423922 0.105671642,4.08231765 C0.0765671642,4.16651373 0.0534328358,4.25592549 0.0302985075,4.34310196 C0.0205970149,4.38110196 0.0101492537,4.41910196 -0.000298507463,4.45784706 L-0.000298507463,4.76035686 C0.17358209,5.18580784 0.36761194,5.30949412 0.819104478,5.29012157 C1.13104478,5.27596471 1.43552239,5.22976863 1.72208955,5.15153333 C1.96910448,5.08447451 2.21910448,5.0122 2.46164179,4.94141569 C2.97955224,4.79090588 3.51537313,4.63518039 4.05641791,4.52341569 C5.64895522,4.19482745 7.1019403,3.9869451 8.49895522,3.88859216 C9.58253731,3.81184706 10.6340299,3.78278824 12.0138806,3.79098431 L12.1608955,3.79098431 L12.3079104,3.79098431 L12.3064179,3.86549412 C12.2907463,4.53533725 12.2191045,5.15600392 12.0885075,5.76176863 C11.7885075,7.14914118 11.1571642,8.11851373 10.1698507,9.32482745 C9.26910448,10.423102 8.20865672,11.3820431 7.28477612,12.1934549 C6.87656716,12.5533373 6.45791045,12.9124745 6.05343284,13.2611804 C5.20791045,13.987651 4.33477612,14.7379647 3.51238806,15.5180824 C2.61462687,16.3697294 1.91462687,17.6773765 1.59298507,19.1064745 C1.37283582,20.0795725 1.33253731,21.0802392 1.31014925,22.0220431 C1.30268657,22.3059255 1.29895522,22.5890627 1.29597015,22.8714549 C1.29074627,23.2164353 1.28626866,23.5725922 1.2758209,23.9235333 C1.24746269,24.8698078 1.21238806,25.8682392 1.16761194,26.9762 C1.12208955,28.1124745 1.07955224,29.0490627 1.03402985,29.9230627 C1.0019403,30.5437294 0.96238806,31.0928667 0.913134328,31.6002784 C0.899701493,31.7366314 0.886268657,31.8737294 0.872089552,32.0093373 C0.815373134,32.5607098 0.755671642,33.1307098 0.764626866,33.6954941 C0.775820896,34.4405922 1.0661194,35.1402392 1.60343284,35.7206706 C1.89970149,36.0395725 2.22955224,36.3651804 2.61014925,36.7161216 C2.77208955,36.8643961 2.9661194,36.9813765 3.1519403,37.0886706 C3.32731343,37.1892588 3.52134328,37.2272588 3.71238806,37.1974549 C4.0019403,37.152749 4.20865672,36.9761608 4.36537313,36.6408667 C4.57358209,36.195298 4.65865672,35.6729843 4.63552239,34.9979255 C4.61014925,34.2789059 4.56537313,33.5479647 4.52134328,32.8401216 C4.50641791,32.5942392 4.49074627,32.3476118 4.47656716,32.1009843 C4.45268657,31.6941608 4.42731343,31.2873373 4.40268657,30.8805137 C4.35716418,30.1443569 4.30940299,29.3836118 4.27134328,28.633298 C4.20865672,27.3874941 4.16537313,26.2936902 4.13925373,25.289298 C4.11835821,24.5091804 4.11537313,23.7029843 4.13104478,22.8252588 C4.14597015,21.9862784 4.17656716,21.2195725 4.2258209,20.4804353 C4.30865672,19.2338863 4.78402985,18.1572196 5.63850746,17.2817294 C6.10791045,16.8003961 6.6041791,16.3086314 7.15716418,15.7773765 L7.61985075,15.3318078 C8.4661194,14.5181608 9.34149254,13.6754549 10.2198507,12.8647882 C11.0146269,12.1316118 11.8332836,11.4312196 12.6258209,10.7546706 C13.0952239,10.3530627 13.6056716,10.1533765 14.1676119,10.1533765 C14.5631343,10.1533765 14.9840299,10.2517294 15.4340299,10.4491804 C15.8892537,10.6481216 16.2929851,10.8932588 16.6355224,11.1786314 C17.1959701,11.6443176 17.7519403,12.133102 18.2907463,12.6054941 L18.4661194,12.7597294 C19.409403,13.5882784 20.3855224,14.4458863 21.2683582,15.3727882 C22.098209,16.2430627 22.8280597,17.2511804 23.5646269,18.5454157 C24.0213433,19.3471412 24.1683582,22.1546706 24.1646269,22.7991804 C24.1608955,23.5576902 24.1810448,24.3303569 24.201194,25.0769451 C24.2220896,25.8406706 24.2429851,26.6297294 24.2377612,27.4068667 L24.2370149,27.4724353 C24.2325373,28.070749 24.228806,28.6899255 24.2041791,29.2986706 C24.1571642,30.4714549 24.1131343,31.5272588 24.0422388,32.5838078 C24.001194,33.1821216 23.9295522,33.8243961 23.8161194,34.6037686 C23.7885075,34.7907882 23.7668657,34.979298 23.7467164,35.1633373 C23.7131343,35.4583961 23.678806,35.7646314 23.6183582,36.0678863 C23.5071642,36.6282 23.6922388,36.9411412 24.2377612,37.1154941 C24.7392537,37.2756902 25.2452239,37.2980431 25.7429851,37.1818078 C26.1310448,37.0901608 26.8280597,36.8666314 27.1302985,36.3867882 C27.2810448,36.1483569 27.3773134,35.8696902 27.4429851,35.4837294 C27.5534328,34.8258078 27.5273134,34.1865137 27.481791,33.4183176 C27.4586567,33.0241608 27.4325373,32.630749 27.4071642,32.2373373 C27.3631343,31.5719647 27.3183582,30.8834941 27.2862687,30.2054549 C27.2608955,29.6838863 27.2467164,29.1533765 27.2325373,28.6400039 C27.2198507,28.1825137 27.2071642,27.7108667 27.1862687,27.2466706 C27.1616418,26.6744353 27.128806,26.0932588 27.0967164,25.5307098 C27.0683582,25.0322392 27.0385075,24.5173765 27.0146269,24.0107098 C27.0049254,23.7961216 26.9944776,23.5807882 26.9840299,23.3662 C26.9407463,22.4810235 26.8959701,21.5660431 26.8892537,20.6652196 C26.878806,19.406749 26.5556716,18.2756902 25.901194,17.2087098 C25.4183582,16.4203961 24.7989552,15.6626314 23.9534328,14.823651 C22.8407463,13.7186706 21.7116418,12.6233765 20.74,11.6823176 C19.5347761,10.514749 18.2750746,9.4567098 17.2026866,8.57525882 C16.6414925,8.11478824 15.8191045,7.69157255 15.0019403,7.4442 C14.9773134,7.43749412 14.9616418,7.42110196 14.9519403,7.40992549 L14.9422388,7.40098431 L14.901194,7.36372941 L14.9265672,7.31380784 C15.3855224,6.4174549 15.6340299,5.4287098 15.8750746,4.47274902 C15.9243284,4.27604314 15.9743284,4.08008235 16.0250746,3.88412157 L16.04,3.82749412 L16.098209,3.82972941 C16.2944776,3.8356902 16.49,3.83941569 16.6862687,3.84239608 C17.1086567,3.85059216 17.5452239,3.85878824 17.9735821,3.89455294 C18.9414925,3.97502353 19.9243284,4.07263137 20.8743284,4.16651373 C21.298209,4.20823922 21.7228358,4.24996471 22.1467164,4.2902 C22.8362687,4.35651373 23.6168657,4.43102353 24.3840299,4.37663137 C25.2347761,4.31627843 25.9191045,4.02867059 26.4765672,3.49965098 C26.8168657,3.17627843 27.1302985,2.8089451 27.4332836,2.37529804 C27.6414925,2.07800392 27.8750746,1.71812157 28.0310448,1.30459216 C28.0877612,1.15557255 28.1422388,0.97674902 28.1176119,0.781533333" id="Fill-1" fill="#FEFEFE" mask="url(#mask-2)"></path>
                </g>
                <path d="M18.0681343,27.1032392 C18.0703731,27.7641412 18.0763433,29.3094745 17.633806,29.6790431 L17.5979851,29.7133176 C16.5114179,30.9315529 13.5323134,31.0127686 12.1308209,30.4718275 C11.1278358,30.0843765 10.5681343,29.2439059 10.4688806,27.9750039 C10.4114179,27.2455529 10.4121642,26.4900235 10.4136567,25.7590824 L10.4136567,25.5936706 C10.4136567,25.3582196 10.4136567,24.9230824 10.4248507,24.7263765 C10.4547015,24.7278667 10.4860448,24.7278667 10.5211194,24.7286118 C11.2226119,24.7412784 12.5136567,24.7450039 13.3987313,24.7375529 C14.5748507,24.7278667 15.825597,24.7204157 17.0464925,24.7546902 C17.1651493,24.7576706 17.283806,24.7561804 17.3994776,24.7546902 C17.5524627,24.7524549 17.6972388,24.7509647 17.8382836,24.7591608 C17.9054478,24.7628863 17.9629104,24.7651216 18.0136567,24.7673569 C18.0151493,24.7934353 18.0158955,24.8224941 18.0181343,24.8537882 C18.0718657,25.7948471 18.0770896,26.280651 18.0688806,26.759749 C18.0673881,26.8551216 18.0673881,26.9713569 18.0681343,27.1032392 Z M21.0875373,19.7476314 C21.075597,19.3445333 20.8935075,19.0114745 20.5584328,18.7842196 C20.0114179,18.4124157 19.175597,18.4161412 18.633806,18.612102 C17.4293284,19.0472392 17.6158955,20.4301412 17.7517164,21.4390039 C17.775597,21.622298 17.7994776,21.7988863 17.8158955,21.964298 C15.2830597,22.1557882 12.8584328,22.1826118 10.5994776,22.0447686 C10.6151493,21.7765333 10.6502239,21.500102 10.6830597,21.2311216 C10.7875373,20.4033176 10.8852985,19.6217098 10.4472388,19.0666118 C10.1897761,18.7402588 9.79126866,18.5510039 9.22932836,18.4884157 C8.63380597,18.422102 8.08529851,18.6173176 7.72335821,19.0233961 C7.36589552,19.4250039 7.22858209,19.9912784 7.35619403,20.5366902 C7.65395522,21.8070824 7.77932836,23.1005725 7.74052239,24.4909255 C7.72932836,24.8590039 7.70395522,25.2524157 7.67708955,25.6689255 C7.56440299,27.3893569 7.43679104,29.3385333 8.29276119,30.7862588 C9.21813433,32.3517098 11.0741045,33.1728078 13.6741045,33.1728078 C13.7860448,33.1728078 13.9002239,33.1720627 14.014403,33.1690824 C14.1181343,33.166102 14.2233582,33.1638667 14.3315672,33.1608863 C16.0129104,33.1213961 18.3158955,33.067749 19.6136567,31.737749 C20.7748507,30.5463373 20.8069403,28.3028471 20.8278358,26.8178667 L20.8300746,26.6807686 C20.8360448,26.2754353 20.8405224,25.8708471 20.845,25.467749 C20.8658955,23.5252784 20.8852985,21.6915922 21.0852985,19.7923373 L21.0875373,19.7707294 L21.0875373,19.7476314 Z" id="Fill-3" fill="#FEFEFE"></path>
                <!-- <path d="M39.4173134,25.9718078 C39.4038806,26.3234941 39.3874627,26.6766706 39.3620896,27.0320824 C39.3404478,27.3286314 39.58,27.5789843 39.8777612,27.5789843 L44.1270149,27.5789843 C44.4120896,27.5789843 44.6434328,27.8107098 44.6434328,28.0960824 L44.6434328,33.4913373 C44.6434328,33.7737294 44.4180597,34.0032196 44.1352239,34.0069451 C43.4486567,34.0158863 42.2270149,34.0278078 41.4874627,34.0129059 C41.2680597,34.0084353 41.08,33.8653765 41.0083582,33.6574941 C41.0068657,33.6537686 41.0053731,33.649298 41.0031343,33.6440824 C40.8852239,33.3065529 41.1314925,32.9526314 41.4897015,32.9526314 L42.9150746,32.9526314 C43.2001493,32.9526314 43.4314925,32.721651 43.4314925,32.4370235 L43.4314925,29.1198471 C43.4314925,28.8352196 43.2001493,28.6034941 42.9150746,28.6034941 L39.6038806,28.6034941 C39.3576119,28.6034941 39.1441791,28.7778471 39.0979104,29.0192588 C38.7329851,30.9095725 37.93,32.6560824 36.071791,33.8333373 C35.8568657,33.9682 35.5747761,33.9294549 35.4068657,33.7394549 C35.388209,33.717102 35.3680597,33.694749 35.3471642,33.6731412 C35.1277612,33.4376902 35.1650746,33.0629059 35.4344776,32.8863176 C37.8949254,31.2783961 38.1658209,28.5252588 38.2635821,26.011298 C38.2755224,25.7177294 38.0404478,25.4740824 37.7471642,25.4740824 L35.7635821,25.4740824 C35.4777612,25.4740824 35.2464179,25.2423569 35.2464179,24.9584745 L35.2464179,24.954749 C35.2464179,24.6693765 35.4777612,24.4383961 35.7635821,24.4383961 L45.1583582,24.4383961 C45.4441791,24.4383961 45.6755224,24.6693765 45.6755224,24.954749 L45.6755224,24.9584745 C45.6755224,25.2423569 45.4441791,25.4740824 45.1583582,25.4740824 L39.9337313,25.4740824 C39.6553731,25.4740824 39.4277612,25.6938863 39.4173134,25.9718078" id="Fill-5" fill="#FEFEFE"></path> -->
                <!-- <path d="M52.4537313,29.3786196 L52.4537313,30.2190902 C52.4537313,30.514149 52.6940299,30.7548157 52.9902985,30.7548157 L54.5328358,30.7548157 C54.8298507,30.7548157 55.0701493,30.514149 55.0701493,30.2190902 L55.0701493,29.3786196 C55.0701493,29.0828157 54.8298507,28.8428941 54.5328358,28.8428941 L52.9902985,28.8428941 C52.6940299,28.8428941 52.4537313,29.0828157 52.4537313,29.3786196 Z M51.4335821,31.1519529 L51.4335821,28.4338353 C51.4335821,28.1380314 51.6738806,27.8981098 51.9708955,27.8981098 L55.5649254,27.8981098 C55.861194,27.8981098 56.1022388,28.1380314 56.1022388,28.4338353 L56.1022388,31.1519529 C56.1022388,31.4477569 55.861194,31.6884235 55.5649254,31.6884235 L51.9708955,31.6884235 C51.6738806,31.6884235 51.4335821,31.4477569 51.4335821,31.1519529 Z M58.6223881,32.7576392 L58.6223881,33.5414824 C58.6223881,33.8372863 58.3820896,34.0779529 58.0858209,34.0779529 L56.1880597,34.0779529 C55.9574627,34.0779529 55.7507463,33.9319137 55.6798507,33.7136 C55.6783582,33.7091294 55.6768657,33.706149 55.6753731,33.7024235 C55.5604478,33.3507373 55.8201493,32.9901098 56.1902985,32.9945804 C56.4671642,32.9968157 56.7425373,32.9983059 56.969403,32.9983059 C57.2656716,32.9983059 57.5067164,32.7583843 57.5067164,32.4625804 L57.5067164,27.1142667 C57.5067164,26.8177176 57.2656716,26.5777961 56.969403,26.5777961 L50.5664179,26.5777961 C50.2701493,26.5777961 50.0291045,26.8177176 50.0291045,27.1142667 L50.0291045,33.5191294 C50.0291045,33.8149333 49.788806,34.0548549 49.4925373,34.0548549 L49.45,34.0548549 C49.1537313,34.0548549 48.9134328,33.8149333 48.9134328,33.5191294 L48.9134328,26.0778353 C48.9134328,25.7827765 49.1537313,25.5428549 49.45,25.5428549 L51.838806,25.5428549 C52.0537313,25.5428549 52.2492537,25.414698 52.3328358,25.2157569 C52.4910448,24.8417176 52.641791,24.4363843 52.7626866,24.0623451 C52.8455224,23.8037961 53.111194,23.651051 53.3783582,23.704698 L53.5813433,23.7449333 C53.9246269,23.8142275 54.1097015,24.1867765 53.9589552,24.502698 C53.9164179,24.5921098 53.8723881,24.6815216 53.8298507,24.7709333 C53.6559701,25.1278353 53.9149254,25.5428549 54.3119403,25.5428549 L58.0858209,25.5428549 C58.3820896,25.5428549 58.6223881,25.7827765 58.6223881,26.0778353 L58.6223881,32.7576392 Z" id="Fill-7" fill="#FEFEFE"></path> -->
                <!-- <path d="M69.9079851,32.0395137 C69.4236567,31.5164549 68.7945522,30.9106902 68.0915672,30.2743765 C67.9020149,30.1015137 67.6117164,30.1052392 67.4221642,30.2795922 C66.6258955,31.0075529 65.7885821,31.6498275 64.9408209,32.1877882 C64.7505224,32.3084941 64.5020149,32.2801804 64.3393284,32.1244549 C64.3094776,32.0961412 64.2788806,32.0670824 64.2482836,32.0380235 C64.0087313,31.813749 64.0505224,31.4255529 64.3318657,31.2564157 C65.0900746,30.8019059 65.8296269,30.2654353 66.5258955,29.6708471 C66.7579851,29.472651 66.7572388,29.1127686 66.5229104,28.9160627 C65.8908209,28.3840627 65.2557463,27.8647294 64.6482836,27.3915922 C64.396791,27.1956314 64.396791,26.8163765 64.6475373,26.6189255 C64.8229104,26.4803373 65.0691791,26.4758667 65.2475373,26.6092392 C65.9124627,27.1062196 66.635597,27.6732392 67.3490299,28.2551608 C67.5497761,28.4190824 67.8460448,28.4004549 68.0214179,28.2089647 C68.5624627,27.6151216 69.0512687,26.9907294 69.4699254,26.341749 C69.5982836,26.1435529 69.843806,26.0586118 70.0639552,26.1420627 L70.1564925,26.1778275 C70.4557463,26.2918275 70.5676866,26.6546902 70.3878358,26.9192 C69.9311194,27.588298 69.4191791,28.2305725 68.8684328,28.8408078 C68.6818657,29.0479451 68.6990299,29.3668471 68.9102239,29.5479059 C69.6079851,30.1447294 70.2445522,30.7259059 70.7505224,31.2392784 C70.9505224,31.4419451 70.9400746,31.7705333 70.7251493,31.9575529 L70.5923134,32.0730431 C70.3915672,32.2473961 70.0885821,32.2339843 69.9079851,32.0395137 M72.396791,33.5572784 L72.396791,33.5848471 C72.396791,33.8568078 72.1758955,34.0773569 71.9035075,34.0773569 L62.6415672,34.0773569 C62.3684328,34.0773569 62.1482836,33.8568078 62.1482836,33.5848471 L62.1482836,25.0102588 C62.1482836,24.738298 62.3684328,24.517749 62.6415672,24.517749 L71.6027612,24.517749 C71.8758955,24.517749 72.096791,24.738298 72.096791,25.0102588 L72.096791,25.0385725 C72.096791,25.3105333 71.8758955,25.5310824 71.6027612,25.5310824 L63.7341045,25.5310824 C63.4609701,25.5310824 63.2400746,25.7516314 63.2400746,26.0235922 L63.2400746,32.5722588 C63.2400746,32.8442196 63.4609701,33.0647686 63.7341045,33.0647686 L71.9035075,33.0647686 C72.1758955,33.0647686 72.396791,33.2853176 72.396791,33.5572784" id="Fill-9" fill="#FEFEFE"></path> -->
                <!-- <path d="M89.2920149,27.5201961 C89.2591791,27.5656471 89.1890299,27.5559608 89.1696269,27.5030588 L88.8539552,26.9315686 C88.7472388,26.7557255 88.753209,26.5359216 88.8711194,26.3660392 C89.2584328,25.809451 89.5793284,25.0986275 89.795,24.3550196 C89.8554478,24.1463922 90.0763433,24.0212157 90.286791,24.077098 L90.4420149,24.1188235 C90.6621642,24.1776863 90.7890299,24.4079216 90.7196269,24.6247451 L90.6203731,24.9384314 C90.586791,25.0464706 90.6673881,25.156 90.7808209,25.156 L91.8069403,25.156 C92.0308209,25.156 92.2114179,25.3370588 92.2114179,25.5598431 L92.2114179,25.6738431 C92.2114179,25.8973725 92.0308209,26.0776863 91.8069403,26.0776863 L90.3957463,26.0776863 C90.2427612,26.0776863 90.1047015,26.1656078 90.0345522,26.2997255 C89.8673881,26.6245882 89.695,26.9256078 89.4987313,27.2050196 L91.6233582,27.2050196 C91.795,27.2050196 91.9352985,27.345098 91.9352985,27.5164706 L91.9352985,27.7914118 C91.9352985,27.9642745 91.795,28.1036078 91.6233582,28.1036078 L91.2845522,28.1036078 C91.1666418,28.1036078 91.0711194,28.1989804 91.0711194,28.3159608 L91.0711194,29.2026275 C91.0711194,29.3747451 91.2114179,29.5155686 91.3845522,29.5155686 L91.9464925,29.5155686 C92.1196269,29.5155686 92.2599254,29.654902 92.2599254,29.8277647 L92.2599254,30.1012157 C92.2599254,30.2740784 92.1196269,30.4141569 91.9464925,30.4141569 L91.3845522,30.4141569 C91.2114179,30.4141569 91.0711194,30.5534902 91.0711194,30.727098 L91.0711194,32.2128235 C91.0711194,32.3059608 91.1748507,32.3633333 91.2539552,32.3134118 L91.7920149,31.9736471 C91.9330597,31.8834902 92.1211194,31.9475686 92.1778358,32.1047843 C92.2136567,32.2038824 92.2539552,32.3037255 92.2927612,32.3931373 C92.3457463,32.5093725 92.306194,32.6464706 92.2002239,32.7187451 C90.9935075,33.5420784 90.4136567,33.9995686 90.1860448,34.1888235 C90.1211194,34.2424706 90.0263433,34.2268235 89.9808209,34.1560392 C89.9136567,34.0547059 89.8285821,33.9392157 89.7427612,33.8356471 C89.6330597,33.7037647 89.6263433,33.5100392 89.7390299,33.3803922 C89.9181343,33.1732549 90.086791,32.8595686 90.086791,32.4624314 L90.086791,30.727098 C90.086791,30.5534902 89.9472388,30.4141569 89.7741045,30.4141569 L89.2479851,30.4141569 C89.075597,30.4141569 88.9352985,30.2740784 88.9352985,30.1012157 L88.9352985,29.8277647 C88.9352985,29.654902 89.075597,29.5155686 89.2479851,29.5155686 L89.7741045,29.5155686 C89.9472388,29.5155686 90.086791,29.3747451 90.086791,29.2026275 L90.086791,28.3159608 C90.086791,28.1989804 89.9920149,28.1036078 89.8741045,28.1036078 L89.7517164,28.1036078 C89.5793284,28.1036078 89.4390299,27.9642745 89.4390299,27.7914118 L89.4390299,27.2847451 L89.2920149,27.5201961 Z" id="Fill-11" fill="#FEFEFE"></path> -->
                <!-- <path d="M94.119403,32.144349 C94.119403,32.2315255 94.1656716,32.3127412 94.241791,32.3559569 C94.4201493,32.4587804 94.6126866,32.5988588 94.8761194,32.7471333 C95.4641791,33.0891333 96.1955224,33.1904667 97.1201493,33.1904667 C97.7664179,33.1904667 98.7544776,33.1494863 99.5298507,33.0809373 C99.7029851,33.0645451 99.8373134,33.2269765 99.7880597,33.3938784 C99.7358209,33.5712118 99.688806,33.762702 99.6619403,33.9243882 C99.6432836,34.0361529 99.5477612,34.1196039 99.4343284,34.1263098 C98.7902985,34.1650549 97.7753731,34.1926235 97.108209,34.1926235 C96.1,34.1926235 95.3679104,34.0219961 94.7201493,33.6576431 C94.3119403,33.4072902 93.9634328,33.1226627 93.7477612,33.1226627 C93.4761194,33.1226627 93.1029851,33.5622706 92.7559701,34.0540353 C92.658209,34.1918784 92.4544776,34.1941137 92.3544776,34.0570157 L91.9731343,33.5294863 C91.9029851,33.4326235 91.9119403,33.2970157 91.9962687,33.2128196 C92.3201493,32.8909373 92.6604478,32.6234471 92.9843284,32.4394078 C93.0619403,32.3954471 93.111194,32.3149765 93.111194,32.2255647 L93.111194,28.9538392 C93.111194,28.8174863 93.0014925,28.7072118 92.8649254,28.7072118 L92.5537313,28.7072118 C92.4179104,28.7072118 92.3074627,28.5961922 92.3074627,28.4605843 L92.3074627,27.9859569 C92.3074627,27.8496039 92.4179104,27.7400745 92.5537313,27.7400745 L93.8731343,27.7400745 C94.0097015,27.7400745 94.119403,27.8496039 94.119403,27.9859569 L94.119403,32.144349 Z" id="Fill-13" fill="#FEFEFE"></path> -->
                <!-- <path d="M93.100597,26.8515451 C92.9543284,26.3649961 92.7058209,25.7458196 92.4602985,25.2115843 C92.3983582,25.0767216 92.47,24.9187608 92.6125373,24.8755451 L93.0632836,24.7362118 C93.1789552,24.7004471 93.3050746,24.7540941 93.3580597,24.8628784 C93.6214925,25.4097804 93.8879104,26.0460941 94.0543284,26.5356235 C94.0983582,26.6645255 94.028209,26.8031137 93.8998507,26.8470745 L93.4170149,27.0132314 C93.2841791,27.0586824 93.1416418,26.9864078 93.100597,26.8515451" id="Fill-15" fill="#FEFEFE"></path> -->
                <!-- <path d="M95.8240299,28.7870118 C95.5643284,28.7870118 95.3270149,28.8108549 95.1553731,28.8503451 C95.0113433,28.8838745 94.8665672,28.7996784 94.8165672,28.6603451 C94.7695522,28.5262275 94.7120896,28.3764627 94.6546269,28.2438353 C94.6053731,28.1298353 94.6359701,28.0024235 94.7240299,27.9174824 C94.8568657,27.7893255 94.9807463,27.565051 95.1158209,27.284149 C95.1792537,27.1381098 95.2979104,26.8482667 95.4352239,26.4697569 C95.5031343,26.2797569 95.3635821,26.0778353 95.160597,26.0778353 L94.7232836,26.0778353 C94.5628358,26.0778353 94.4322388,25.9474431 94.4322388,25.7872471 L94.4322388,25.4243843 C94.4322388,25.2634431 94.5628358,25.1337961 94.7232836,25.1337961 L95.6352239,25.1337961 C95.7680597,25.1337961 95.8837313,25.0458745 95.9173134,24.9177176 C95.9807463,24.6763059 96.041194,24.4281882 96.0919403,24.1867765 C96.1247761,24.0303059 96.2747761,23.9282275 96.4307463,23.9572863 L96.9434328,24.0526588 C97.1120896,24.0839529 97.2165672,24.2508549 97.171791,24.4155216 C97.141194,24.5287765 97.1091045,24.6435216 97.0740299,24.7590118 C97.0180597,24.9452863 97.1568657,25.1337961 97.3523881,25.1337961 L99.3128358,25.1337961 C99.4740299,25.1337961 99.6038806,25.2634431 99.6038806,25.4243843 L99.6038806,25.7872471 C99.6038806,25.9474431 99.4740299,26.0778353 99.3128358,26.0778353 L96.8143284,26.0778353 C96.6949254,26.0778353 96.5874627,26.1530902 96.5441791,26.2641098 C96.3740299,26.6940314 96.1956716,27.1038353 96.0143284,27.4860706 C95.9232836,27.679051 96.0643284,27.8996 96.2777612,27.8996 L96.5277612,27.8996 C96.6889552,27.8996 96.8202985,27.7692078 96.8202985,27.6082667 L96.8202985,26.904149 C96.8202985,26.7432078 96.9508955,26.6128157 97.1120896,26.6128157 L97.5725373,26.6128157 C97.7337313,26.6128157 97.8635821,26.7432078 97.8635821,26.904149 L97.8635821,27.6082667 C97.8635821,27.7692078 97.9941791,27.8996 98.1553731,27.8996 L99.1083582,27.8996 C99.2695522,27.8996 99.4001493,28.0292471 99.4001493,28.1901882 L99.4001493,28.4949333 C99.4001493,28.6558745 99.2695522,28.7870118 99.1083582,28.7870118 L98.1553731,28.7870118 C97.9941791,28.7870118 97.8635821,28.9174039 97.8635821,29.0783451 L97.8635821,29.8271686 C97.8635821,29.9873647 97.9941791,30.118502 98.1553731,30.118502 L99.4202985,30.118502 C99.5814925,30.118502 99.7120896,30.2488941 99.7120896,30.4098353 L99.7120896,30.7488549 C99.7120896,30.9097961 99.5814925,31.0394431 99.4202985,31.0394431 L98.1553731,31.0394431 C97.9941791,31.0394431 97.8635821,31.1698353 97.8635821,31.3307765 L97.8635821,32.5013255 C97.8635821,32.6622667 97.7337313,32.7926588 97.5725373,32.7926588 L97.1120896,32.7926588 C96.9508955,32.7926588 96.8202985,32.6622667 96.8202985,32.5013255 L96.8202985,31.3307765 C96.8202985,31.1698353 96.6889552,31.0394431 96.5277612,31.0394431 L94.7471642,31.0394431 C94.5859701,31.0394431 94.4553731,30.9097961 94.4553731,30.7488549 L94.4553731,30.4098353 C94.4553731,30.2488941 94.5859701,30.118502 94.7471642,30.118502 L96.5277612,30.118502 C96.6889552,30.118502 96.8202985,29.9873647 96.8202985,29.8271686 L96.8202985,29.0783451 C96.8202985,28.9174039 96.6889552,28.7870118 96.5277612,28.7870118 L95.8240299,28.7870118 Z" id="Fill-17" fill="#FEFEFE"></path> -->
                <!-- <path d="M83.6017164,28.7084039 L82.7823134,28.7084039 C82.556194,28.7084039 82.3726119,28.5206392 82.3815672,28.2941294 C82.3912687,28.0638941 82.3957463,27.8314235 82.3957463,27.6049137 L82.3957463,26.8225608 C82.3957463,26.6012667 82.575597,26.421698 82.7979851,26.421698 L83.6017164,26.421698 C83.8241045,26.421698 84.0039552,26.6012667 84.0039552,26.8225608 L84.0039552,28.3075412 C84.0039552,28.5288353 83.8241045,28.7084039 83.6017164,28.7084039 M85.0472388,28.3075412 L85.0472388,25.8330706 C85.0472388,25.6110314 84.8673881,25.4314627 84.645,25.4314627 L82.7979851,25.4314627 C82.575597,25.4314627 82.3957463,25.251149 82.3957463,25.0298549 L82.3957463,24.1022078 C82.3957463,23.8809137 82.2158955,23.7013451 81.9935075,23.7013451 L81.7181343,23.7013451 C81.4957463,23.7013451 81.3158955,23.8809137 81.3158955,24.1022078 L81.3158955,25.0298549 C81.3158955,25.251149 81.1352985,25.4314627 80.9129104,25.4314627 L79.736791,25.4314627 C79.5151493,25.4314627 79.3352985,25.6110314 79.3352985,25.8330706 L79.3352985,26.0200902 C79.3352985,26.2413843 79.5151493,26.421698 79.736791,26.421698 L80.9129104,26.421698 C81.1352985,26.421698 81.3158955,26.6012667 81.3158955,26.8225608 L81.3158955,27.5937373 C81.3158955,27.8329137 81.3106716,28.0825216 81.2964925,28.3284039 C81.2845522,28.541502 81.1076866,28.7084039 80.8942537,28.7084039 L79.4009701,28.7084039 C79.1793284,28.7084039 78.9994776,28.8879725 78.9994776,29.1100118 L78.9994776,29.3089529 C78.9994776,29.5309922 79.1793284,29.7105608 79.4009701,29.7105608 L80.5696269,29.7105608 C80.8494776,29.7105608 81.0427612,29.9884824 80.9472388,30.2507569 C80.5726119,31.2827176 79.836791,32.2237765 78.4151493,32.9822863 C78.1793284,33.1082078 78.1263433,33.4174235 78.306194,33.6133843 C78.3621642,33.6752275 78.4166418,33.7378157 78.4666418,33.7981686 C78.5830597,33.9404824 78.7860448,33.9844431 78.9509701,33.9017373 C80.8860448,32.9249137 81.7427612,31.6187569 82.1196269,30.1993451 C82.1241045,30.2120118 82.1330597,30.1427176 82.1442537,30.0510706 C82.1681343,29.8431882 82.3472388,29.6882078 82.556194,29.6949137 L83.036791,29.7105608 L85.4502239,29.7105608 C85.6718657,29.7105608 85.8524627,29.5309922 85.8524627,29.3089529 L85.8524627,29.1100118 C85.8524627,28.8879725 85.6718657,28.7084039 85.4502239,28.7084039 C85.2278358,28.7084039 85.0472388,28.5288353 85.0472388,28.3075412 M78.3464925,30.533149 C78.2636567,30.5666784 78.1808209,30.6002078 78.0979851,30.6329922 C77.833806,30.738051 77.5472388,30.5435804 77.5472388,30.259698 L77.5472388,28.1339333 C77.5472388,27.9118941 77.7270896,27.7315804 77.9494776,27.7315804 L78.4047015,27.7315804 C78.6270896,27.7315804 78.8069403,27.5520118 78.8069403,27.3299725 L78.8069403,27.1325216 C78.8069403,26.9104824 78.6270896,26.7309137 78.4047015,26.7309137 L77.9494776,26.7309137 C77.7270896,26.7309137 77.5472388,26.5506 77.5472388,26.3293059 L77.5472388,24.1729922 C77.5472388,23.951698 77.3673881,23.7721294 77.145,23.7721294 L76.9166418,23.7721294 C76.695,23.7721294 76.5151493,23.951698 76.5151493,24.1729922 L76.5151493,26.3293059 C76.5151493,26.5506 76.3352985,26.7309137 76.1129104,26.7309137 L75.5487313,26.7309137 C75.3263433,26.7309137 75.1464925,26.9104824 75.1464925,27.1325216 L75.1464925,27.3299725 C75.1464925,27.5520118 75.3263433,27.7315804 75.5487313,27.7315804 L76.1129104,27.7315804 C76.3352985,27.7315804 76.5151493,27.9118941 76.5151493,28.1339333 L76.5151493,30.9861686 C76.5151493,31.1523255 76.4114179,31.3006 76.256194,31.3609529 C75.9330597,31.4853843 75.6270896,31.6001294 75.3509701,31.6969922 C75.1360448,31.7722471 75.0293284,32.0144039 75.114403,32.2252667 L75.2323134,32.5180902 C75.3166418,32.7282078 75.5576866,32.8265608 75.764403,32.7364039 C76.6569403,32.3511882 77.7009701,31.893698 78.7084328,31.437698 C78.8905224,31.3564824 78.983806,31.1538157 78.9293284,30.9630706 L78.8823134,30.7976588 C78.8173881,30.5681686 78.5673881,30.4444824 78.3464925,30.533149" id="Fill-19" fill="#FEFEFE"></path> -->
                <!-- <path d="M83.5324627,30.7057882 L83.2585821,30.7057882 C82.966791,30.7057882 82.7682836,31.008298 82.8921642,31.2728078 C83.4787313,32.528298 84.3078358,33.5289647 85.463806,34.1675137 C85.644403,34.2673569 85.8690299,34.2189255 85.9914179,34.0527686 C86.0630597,33.956651 86.1421642,33.8575529 86.2242537,33.7629255 C86.3951493,33.5647294 86.3279851,33.2644549 86.0966418,33.1430039 C85.1406716,32.6445333 84.4093284,31.8703765 83.8869403,30.9196314 C83.8152985,30.7892392 83.6809701,30.7057882 83.5324627,30.7057882" id="Fill-21" fill="#FEFEFE"></path> -->
                <!-- <path d="M42.7030597,12.7317882 L40.8694776,6.64284706 C40.8142537,6.45880784 40.5523134,6.45806275 40.4963433,6.64284706 L38.645597,12.7325333 C38.5933582,12.9053961 38.4329104,13.0246118 38.2515672,13.0246118 L37.6926119,13.0246118 C37.5105224,13.0246118 37.3493284,12.904651 37.2970896,12.730298 L35.1082836,5.35457255 C35.0784328,5.25398431 35.153806,5.15190588 35.2597761,5.15190588 L35.9112687,5.15190588 C36.0993284,5.15190588 36.2642537,5.27931765 36.3105224,5.46186667 L37.7784328,11.2170039 C37.8269403,11.4092392 38.0985821,11.4152 38.153806,11.2252 C38.5933582,9.72308235 39.606791,6.43272941 39.9135075,5.44100392 C39.9664925,5.26814118 40.1254478,5.15190588 40.306791,5.15190588 L41.1060448,5.15190588 C41.2881343,5.15190588 41.4478358,5.26888627 41.5000746,5.44398431 C41.7948507,6.42453333 42.7508209,9.6292 43.1560448,11.1782588 C43.206791,11.3712392 43.4799254,11.3719843 43.5314179,11.179749 C43.9284328,9.7037098 44.8015672,6.46178824 45.0717164,5.45590588 C45.1202239,5.27633725 45.2836567,5.15190588 45.4702239,5.15190588 L46.1060448,5.15190588 C46.2120149,5.15190588 46.2873881,5.25472941 46.256791,5.35606275 L43.9941045,12.7332784 C43.9411194,12.9061412 43.7814179,13.0246118 43.6000746,13.0246118 L43.0978358,13.0246118 C42.9157463,13.0246118 42.7552985,12.9053961 42.7030597,12.7317882" id="Fill-23" fill="#FEFEFE"></path> -->
                <!-- <path d="M61.3455224,13.0242392 L60.7791045,13.0242392 C60.6470149,13.0242392 60.5223881,12.9609059 60.4455224,12.8536118 L56.3201493,7.14541569 C56.2089552,6.99192549 55.9671642,7.07090588 55.9671642,7.25941569 L55.9671642,12.6129451 C55.9671642,12.8402 55.7828358,13.0242392 55.5544776,13.0242392 L55.2791045,13.0242392 C55.0514925,13.0242392 54.8671642,12.8402 54.8671642,12.6129451 L54.8671642,5.56357255 C54.8671642,5.33631765 55.0514925,5.15227843 55.2791045,5.15227843 L55.8402985,5.15227843 C55.9723881,5.15227843 56.0962687,5.21561176 56.1738806,5.32141569 L60.3,10.9960824 C60.4104478,11.1488275 60.6522388,11.0705922 60.6522388,10.8820824 L60.6522388,5.56357255 C60.6522388,5.33631765 60.8365672,5.15227843 61.0641791,5.15227843 L61.3455224,5.15227843 C61.5738806,5.15227843 61.758209,5.33631765 61.758209,5.56357255 L61.758209,12.6129451 C61.758209,12.8402 61.5738806,13.0242392 61.3455224,13.0242392" id="Fill-25" fill="#FEFEFE"></path> -->
                <!-- <path d="M89.4129851,13.0242392 L88.8465672,13.0242392 C88.7144776,13.0242392 88.5898507,12.9609059 88.5129851,12.8536118 L84.3876119,7.14541569 C84.2764179,6.99192549 84.0346269,7.07090588 84.0346269,7.25941569 L84.0346269,12.6129451 C84.0346269,12.8402 83.8502985,13.0242392 83.6226866,13.0242392 L83.3473134,13.0242392 C83.1189552,13.0242392 82.9346269,12.8402 82.9346269,12.6129451 L82.9346269,5.56357255 C82.9346269,5.33631765 83.1189552,5.15227843 83.3473134,5.15227843 L83.9077612,5.15227843 C84.0398507,5.15227843 84.1644776,5.21561176 84.2413433,5.32141569 L88.3674627,10.9960824 C88.4779104,11.1488275 88.7197015,11.0705922 88.7197015,10.8820824 L88.7197015,5.56357255 C88.7197015,5.33631765 88.9040299,5.15227843 89.1316418,5.15227843 L89.4129851,5.15227843 C89.6413433,5.15227843 89.8256716,5.33631765 89.8256716,5.56357255 L89.8256716,12.6129451 C89.8256716,12.8402 89.6413433,13.0242392 89.4129851,13.0242392" id="Fill-27" fill="#FEFEFE"></path> -->
                <!-- <path d="M70.4304478,13.0242392 L69.4938806,13.0242392 C69.3670149,13.0242392 69.2468657,12.9661216 69.1692537,12.8655333 L66.8991045,9.94698431 C66.8035821,9.82404314 66.6177612,9.82478824 66.5244776,9.94996471 C66.2020896,10.3843569 65.4334328,11.3574549 64.2185075,12.8692588 C64.139403,12.9668667 64.0207463,13.0242392 63.8953731,13.0242392 L62.9983582,13.0242392 C62.8774627,13.0242392 62.8110448,12.8841608 62.8886567,12.7910235 L65.9677612,9.06851373 C66.0386567,8.98282745 66.039403,8.85988627 65.97,8.7727098 L63.2737313,5.38400392 C63.1991045,5.29012157 63.2655224,5.15227843 63.3856716,5.15227843 L64.2677612,5.15227843 C64.3953731,5.15227843 64.5147761,5.21039608 64.5931343,5.31023922 C64.9722388,5.79902353 66.1214925,7.28027843 66.5752239,7.88678824 C66.6670149,8.01047451 66.8498507,8.0127098 66.9446269,7.89051373 C67.2759701,7.46580784 67.9931343,6.60223922 69.0953731,5.29980784 C69.1737313,5.20741569 69.2908955,5.15227843 69.411791,5.15227843 L70.1774627,5.15227843 C70.2983582,5.15227843 70.3647761,5.29310196 70.2879104,5.38623922 L67.5319403,8.71012157 C67.4610448,8.79580784 67.4595522,8.91949412 67.5289552,9.00592549 L70.5423881,12.7925137 C70.6170149,12.8863961 70.5498507,13.0242392 70.4304478,13.0242392" id="Fill-29" fill="#FEFEFE"></path> -->
                <!-- <path d="M72.4892537,13.0242392 L72.148209,13.0242392 C71.9198507,13.0242392 71.7355224,12.8402 71.7355224,12.6129451 L71.7355224,5.56357255 C71.7355224,5.33631765 71.9198507,5.15227843 72.148209,5.15227843 L72.4892537,5.15227843 C72.7168657,5.15227843 72.901194,5.33631765 72.901194,5.56357255 L72.901194,12.6129451 C72.901194,12.8402 72.7168657,13.0242392 72.4892537,13.0242392" id="Fill-31" fill="#FEFEFE"></path> -->
                <!-- <path d="M99.3738806,11.3187098 C99.3738806,11.707651 99.1791045,12.0779647 98.8462687,12.2806314 C97.888806,12.8662784 96.8574627,13.159102 95.7514925,13.159102 C94.4097015,13.159102 93.3268657,12.7910235 92.5044776,12.0548667 C91.6813433,11.3194549 91.2701493,10.3411412 91.2701493,9.12067059 C91.2701493,8.37631765 91.4380597,7.68188627 91.7746269,7.03961176 C92.1119403,6.39733725 92.608209,5.89961176 93.2634328,5.54643529 C93.9179104,5.19400392 94.7208955,5.01816078 95.6686567,5.01816078 C96.6529851,5.01816078 97.4425373,5.21263137 98.0380597,5.60008235 C98.5179104,5.91302353 98.8708955,6.35114118 99.0985075,6.91592549 C99.1902985,7.14243529 99.05,7.39651373 98.8126866,7.45686667 L98.5641791,7.5194549 C98.3656716,7.57012157 98.1641791,7.46431765 98.0835821,7.27655294 C97.911194,6.8749451 97.658209,6.56125882 97.3238806,6.33623922 C96.9014925,6.05161176 96.35,5.90929804 95.6686567,5.90929804 C94.6126866,5.90929804 93.8164179,6.19914118 93.2783582,6.77882745 C92.7402985,7.35925882 92.4716418,8.11851373 92.4716418,9.05584706 C92.4716418,9.75772941 92.6022388,10.3411412 92.8626866,10.8068275 C93.1238806,11.2725137 93.5104478,11.6242 94.0223881,11.8618863 C94.5343284,12.1003176 95.0910448,12.2187882 95.6925373,12.2187882 C96.5365672,12.2187882 97.3268657,11.989298 98.0619403,11.5310627 C98.180597,11.457298 98.25,11.3239255 98.25,11.1838471 L98.25,10.0974941 C98.25,10.0147882 98.1828358,9.94698431 98.1,9.94698431 L96.080597,9.94698431 C95.8529851,9.94698431 95.6686567,9.7629451 95.6686567,9.5356902 L95.6686567,9.4187098 C95.6686567,9.1922 95.8529851,9.00741569 96.080597,9.00741569 L98.961194,9.00741569 C99.1895522,9.00741569 99.3738806,9.1922 99.3738806,9.4187098 L99.3738806,11.3187098 Z" id="Fill-33" fill="#FEFEFE"></path> -->
                <!-- <path d="M76.4290299,9.6793451 C76.4066418,9.73895294 76.4499254,9.80228627 76.5141045,9.80228627 L79.2200746,9.80228627 C79.2857463,9.80228627 79.3312687,9.73746275 79.3051493,9.6771098 C78.8700746,8.63993333 78.3036567,7.18997255 78.0178358,6.45307059 C77.9536567,6.28616863 77.7193284,6.28840392 77.6558955,6.45530588 C77.3133582,7.35612941 76.5864925,9.26507059 76.4290299,9.6793451 M81.8103731,13.0240902 L81.0103731,13.0240902 C80.8454478,13.0240902 80.696194,12.9257373 80.6312687,12.7752275 L79.8178358,10.8789529 C79.7529104,10.727698 79.6036567,10.6293451 79.4387313,10.6293451 L76.3312687,10.6293451 C76.1633582,10.6293451 76.0118657,10.7314235 75.9491791,10.887149 L75.1894776,12.7670314 C75.1260448,12.9227569 74.9752985,13.0240902 74.8066418,13.0240902 L74.0909701,13.0240902 C73.9820149,13.0240902 73.9073881,12.9130706 73.9514179,12.8117373 L77.1178358,5.40248235 C77.1827612,5.25048235 77.3320149,5.15212941 77.4969403,5.15212941 L78.2081343,5.15212941 C78.3700746,5.15212941 78.5163433,5.24675686 78.5835075,5.39354118 L81.9491791,12.8087569 C81.9954478,12.9100902 81.9208209,13.0240902 81.8103731,13.0240902" id="Fill-35" fill="#FEFEFE"></path> -->
                <!-- <path d="M48.3612687,9.6793451 C48.3388806,9.73895294 48.3829104,9.80228627 48.4463433,9.80228627 L51.1523134,9.80228627 C51.2179851,9.80228627 51.2627612,9.73746275 51.2381343,9.6771098 C50.8030597,8.63993333 50.2358955,7.18997255 49.9500746,6.45307059 C49.8858955,6.28616863 49.6515672,6.28840392 49.5881343,6.45530588 C49.245597,7.35612941 48.5187313,9.26507059 48.3612687,9.6793451 M53.7426119,13.0240902 L52.9426119,13.0240902 C52.7776866,13.0240902 52.6284328,12.9257373 52.5635075,12.7752275 L51.7500746,10.8789529 C51.6851493,10.727698 51.5358955,10.6293451 51.3717164,10.6293451 L48.2635075,10.6293451 C48.095597,10.6293451 47.9441045,10.7314235 47.8814179,10.887149 L47.1217164,12.7670314 C47.0582836,12.9227569 46.9075373,13.0240902 46.7396269,13.0240902 L46.0239552,13.0240902 C45.9142537,13.0240902 45.8403731,12.9130706 45.8829104,12.8117373 L49.0500746,5.40248235 C49.115,5.25048235 49.2642537,5.15212941 49.4291791,5.15212941 L50.1403731,5.15212941 C50.3023134,5.15212941 50.4485821,5.24675686 50.5157463,5.39354118 L53.8821642,12.8087569 C53.9276866,12.9100902 53.853806,13.0240902 53.7426119,13.0240902" id="Fill-37" fill="#FEFEFE"></path> -->
                <!-- <path d="M36.7740299,20.4156118 C36.7740299,20.5549451 36.8867164,20.6674549 37.0262687,20.6674549 L38.7598507,20.6674549 C39.4702985,20.6674549 39.9635821,20.5579255 40.2397015,20.3396118 C40.5150746,20.121298 40.6531343,19.8202784 40.6531343,19.4358078 C40.6531343,19.0476118 40.5053731,18.7458471 40.2120896,18.5290235 C39.9180597,18.3122 39.3889552,18.2034157 38.6240299,18.2034157 L36.9613433,18.2034157 C36.8576119,18.2034157 36.7740299,18.2876118 36.7740299,18.3904353 L36.7740299,20.4156118 Z M36.7740299,17.1662392 C36.7740299,17.2690627 36.8576119,17.3532588 36.9613433,17.3532588 L38.5038806,17.3532588 C38.8591045,17.3532588 39.1576119,17.3353765 39.3986567,17.2988667 C39.6397015,17.2638471 39.8531343,17.1692196 40.038209,17.0164745 C40.2232836,16.8622392 40.3158209,16.6245529 40.3158209,16.3019255 C40.3158209,15.9629059 40.221791,15.7125529 40.0352239,15.5523569 C39.8486567,15.3906706 39.6255224,15.2923176 39.3665672,15.2558078 C39.1068657,15.2200431 38.7740299,15.2021608 38.3680597,15.2021608 L37.0262687,15.2021608 C36.8867164,15.2021608 36.7740299,15.3146706 36.7740299,15.454749 L36.7740299,17.1662392 Z M40.6538806,17.4724745 C40.5128358,17.5730627 40.5307463,17.7898863 40.688209,17.8606706 C40.9747761,17.9910627 41.2038806,18.1624353 41.3740299,18.3725529 C41.621791,18.6802784 41.7464179,19.0342 41.7464179,19.4358078 C41.7464179,19.8366706 41.6337313,20.204749 41.4083582,20.5400431 C41.1837313,20.8760824 40.8650746,21.1227098 40.4516418,21.2806706 C40.038209,21.4386314 39.4777612,21.5176118 38.7702985,21.5176118 L36.1449254,21.5176118 C35.9091045,21.5176118 35.718806,21.3276118 35.718806,21.0921608 L35.718806,14.7774549 C35.718806,14.5420039 35.9091045,14.3520039 36.1449254,14.3520039 L38.710597,14.3520039 C39.6792537,14.3520039 40.3620896,14.5405137 40.7591045,14.9190235 C41.1561194,15.2967882 41.3546269,15.7170235 41.3546269,16.1797294 C41.3546269,16.4926706 41.2628358,16.7817686 41.08,17.0470235 C40.9710448,17.2057294 40.8285075,17.347298 40.6538806,17.4724745 Z" id="Fill-39" fill="#FEFEFE"></path> -->
                <!-- <path d="M47.2772388,21.5179843 L43.1406716,21.5179843 C42.905597,21.5179843 42.7152985,21.3272392 42.7152985,21.0925333 L42.7152985,14.7770824 C42.7152985,14.5423765 42.905597,14.3523765 43.1406716,14.3523765 L43.344403,14.3523765 C43.5794776,14.3523765 43.7705224,14.5423765 43.7705224,14.7770824 L43.7705224,20.444298 C43.7705224,20.5679843 43.8705224,20.6670824 43.994403,20.6670824 L47.2772388,20.6670824 C47.5123134,20.6670824 47.7033582,20.8578275 47.7033582,21.0925333 C47.7033582,21.3272392 47.5123134,21.5179843 47.2772388,21.5179843" id="Fill-41" fill="#FEFEFE"></path> -->
                <!-- <path d="M67.855,21.5179843 L67.1475373,21.5179843 C67.016194,21.5179843 66.8923134,21.4576314 66.8117164,21.3540627 L64.3669403,18.224651 C64.2281343,18.0458275 63.9669403,18.0204941 63.7952985,18.1687686 L62.9415672,18.9071608 C62.8482836,18.9876314 62.7945522,19.1053569 62.7945522,19.2290431 L62.7945522,21.0925333 C62.7945522,21.3272392 62.6035075,21.5179843 62.3684328,21.5179843 L62.1647015,21.5179843 C61.9303731,21.5179843 61.7393284,21.3272392 61.7393284,21.0925333 L61.7393284,14.7770824 C61.7393284,14.5423765 61.9303731,14.3523765 62.1647015,14.3523765 L62.3684328,14.3523765 C62.6035075,14.3523765 62.7945522,14.5423765 62.7945522,14.7770824 L62.7945522,17.4542196 C62.7945522,17.6285725 63.0005224,17.7202196 63.1303731,17.6039843 L66.6385821,14.4604157 C66.7169403,14.3911216 66.8176866,14.3523765 66.9229104,14.3523765 L67.5803731,14.3523765 C67.7893284,14.3523765 67.8870896,14.6109255 67.7288806,14.7487686 L65.1609701,16.9810824 C64.9848507,17.1338275 64.9624627,17.3990824 65.1094776,17.5793961 L68.0296269,21.1491608 C68.1505224,21.2966902 68.0460448,21.5179843 67.855,21.5179843" id="Fill-43" fill="#FEFEFE"></path> -->
                <!-- <path d="M74.5670149,19.1385882 C74.8297015,19.1989412 74.9655224,19.4820784 74.8610448,19.729451 C74.62,20.2957255 74.2714925,20.7345882 73.8155224,21.0460392 C73.2371642,21.4424314 72.5438806,21.6398824 71.7349254,21.6398824 C70.4297015,21.6398824 69.4789552,21.272549 68.8819403,20.5378824 C68.2856716,19.8032157 67.9871642,18.9187843 67.9871642,17.8853333 C67.9871642,16.7416078 68.3379104,15.8467451 69.0401493,15.2 C69.7408955,14.5532549 70.6431343,14.2291373 71.7461194,14.2291373 C72.5222388,14.2291373 73.1856716,14.4072157 73.7371642,14.7626275 C74.1423881,15.0241569 74.4580597,15.3736078 74.6849254,15.8124706 C74.8147761,16.0628235 74.6722388,16.3690588 74.3961194,16.4279216 L74.2073134,16.4681569 C74.0147761,16.5098824 73.8207463,16.4107843 73.7356716,16.2341961 C73.5685075,15.8862353 73.3453731,15.6142745 73.0677612,15.4175686 C72.7125373,15.1664706 72.2685075,15.0412941 71.7349254,15.0412941 C70.8647761,15.0412941 70.2043284,15.2976078 69.7550746,15.8109804 C69.3050746,16.3243529 69.0797015,17.0120784 69.0797015,17.8763922 C69.0797015,18.8733333 69.3170149,19.615451 69.7908955,20.1005098 C70.2632836,20.5855686 70.881194,20.8292157 71.6423881,20.8292157 C72.2662687,20.8292157 72.7729851,20.6764706 73.1625373,20.3739608 C73.4722388,20.1340392 73.7080597,19.7972549 73.87,19.3643529 C73.9453731,19.1631765 74.1543284,19.0447059 74.3647761,19.0923922 L74.5670149,19.1385882 Z" id="Fill-45" fill="#FEFEFE"></path> -->
                <!-- <path d="M81.6952239,21.5179843 L81.4862687,21.5179843 C81.251194,21.5179843 81.0601493,21.3272392 81.0601493,21.0925333 L81.0601493,18.3602588 C81.0601493,18.2417882 80.9646269,18.1449255 80.8444776,18.1449255 L77.1310448,18.1449255 C77.0123881,18.1449255 76.9153731,18.2417882 76.9153731,18.3602588 L76.9153731,21.0925333 C76.9153731,21.3272392 76.7250746,21.5179843 76.4892537,21.5179843 L76.2862687,21.5179843 C76.051194,21.5179843 75.8601493,21.3272392 75.8601493,21.0925333 L75.8601493,14.7770824 C75.8601493,14.5423765 76.051194,14.3523765 76.2862687,14.3523765 L76.4892537,14.3523765 C76.7250746,14.3523765 76.9153731,14.5423765 76.9153731,14.7770824 L76.9153731,17.0794353 C76.9153731,17.1979059 77.0123881,17.2947686 77.1310448,17.2947686 L80.8444776,17.2947686 C80.9646269,17.2947686 81.0601493,17.1979059 81.0601493,17.0794353 L81.0601493,14.7770824 C81.0601493,14.5423765 81.251194,14.3523765 81.4862687,14.3523765 L81.6952239,14.3523765 C81.9302985,14.3523765 82.1213433,14.5423765 82.1213433,14.7770824 L82.1213433,21.0925333 C82.1213433,21.3272392 81.9302985,21.5179843 81.6952239,21.5179843" id="Fill-47" fill="#FEFEFE"></path> -->
                <!-- <path d="M87.5545522,18.4145765 C87.0873881,17.2924588 86.6754478,16.1949294 86.4329104,15.560851 C86.3702239,15.3961843 86.1381343,15.3969294 86.0754478,15.560851 C85.7739552,16.3469294 85.1754478,17.9086549 84.9806716,18.4190471 C84.9500746,18.4995176 85.0097761,18.5852039 85.095597,18.5852039 L87.4418657,18.5852039 C87.5291791,18.5852039 87.5888806,18.4950471 87.5545522,18.4145765 M89.8351493,21.5179098 L89.1635075,21.5179098 C88.9933582,21.5179098 88.8396269,21.4165765 88.7724627,21.2601059 L88.0575373,19.5955569 C87.9903731,19.4390863 87.8366418,19.3377529 87.6657463,19.3377529 L84.9052985,19.3377529 C84.7314179,19.3377529 84.5754478,19.4428118 84.5105224,19.6037529 L83.8441045,21.2519098 C83.7791791,21.4121059 83.6224627,21.5179098 83.4493284,21.5179098 L82.8552985,21.5179098 C82.7448507,21.5179098 82.6694776,21.4054 82.7135075,21.3033216 L85.5739552,14.610851 C85.6411194,14.4536353 85.7948507,14.352302 85.965,14.352302 L86.5463433,14.352302 C86.7135075,14.352302 86.865,14.4499098 86.934403,14.6019098 L89.9754478,21.3003412 C90.0217164,21.4024196 89.9470896,21.5179098 89.8351493,21.5179098" id="Fill-49" fill="#FEFEFE"></path> -->
                <!-- <path d="M91.2699254,21.5179843 L91.0609701,21.5179843 C90.8251493,21.5179843 90.6341045,21.3272392 90.6341045,21.0925333 L90.6341045,14.7770824 C90.6341045,14.5423765 90.8251493,14.3523765 91.0609701,14.3523765 L91.2699254,14.3523765 C91.5042537,14.3523765 91.6952985,14.5423765 91.6952985,14.7770824 L91.6952985,21.0925333 C91.6952985,21.3272392 91.5042537,21.5179843 91.2699254,21.5179843" id="Fill-51" fill="#FEFEFE"></path> -->
                <!-- <path d="M98.9475373,21.5179843 L98.505,21.5179843 C98.3706716,21.5179843 98.243806,21.4539059 98.163209,21.3466118 L94.4512687,16.3596706 C94.3393284,16.210651 94.1027612,16.2881412 94.1027612,16.4744157 L94.1027612,21.0925333 C94.1027612,21.3272392 93.9117164,21.5179843 93.6766418,21.5179843 L93.5273881,21.5179843 C93.2923134,21.5179843 93.1012687,21.3272392 93.1012687,21.0925333 L93.1012687,14.7770824 C93.1012687,14.5423765 93.2923134,14.3523765 93.5273881,14.3523765 L93.9647015,14.3523765 C94.0997761,14.3523765 94.2266418,14.4157098 94.3064925,14.5230039 L98.0191791,19.5106902 C98.1296269,19.6597098 98.3676866,19.5807294 98.3676866,19.3944549 L98.3676866,14.7770824 C98.3676866,14.5423765 98.5579851,14.3523765 98.7930597,14.3523765 L98.9475373,14.3523765 C99.1826119,14.3523765 99.3736567,14.5423765 99.3736567,14.7770824 L99.3736567,21.0925333 C99.3736567,21.3272392 99.1826119,21.5179843 98.9475373,21.5179843" id="Fill-53" fill="#FEFEFE"></path> -->
                <!-- <path d="M60.5518657,19.1553529 C60.1973881,19.0748824 59.8436567,19.2604118 59.6884328,19.5882549 C59.5339552,19.9153529 59.3294776,20.1768824 59.0757463,20.3743333 C58.686194,20.6768431 58.1787313,20.8288431 57.555597,20.8288431 C56.7936567,20.8288431 56.1764925,20.5859412 55.7033582,20.1008824 C55.555597,19.9481373 55.4302239,19.771549 55.3287313,19.5696275 C55.2764925,19.4660588 55.1294776,19.4705294 55.0891791,19.5778235 C55.0190299,19.7603725 54.925,19.9548431 54.7973881,20.1426078 C54.7078358,20.2737451 54.716791,20.448098 54.8197761,20.5680588 C54.9018657,20.6626863 54.986194,20.7506078 55.0324627,20.7938235 C55.6324627,21.3578627 56.5041045,21.6402549 57.6473881,21.6402549 C58.4563433,21.6402549 59.1503731,21.4420588 59.7287313,21.0456667 C60.2436567,20.6932353 60.6220149,20.1783725 60.8623134,19.5018235 C60.9093284,19.3662157 60.8339552,19.2194314 60.6936567,19.1873922 L60.5518657,19.1553529 Z M54.8369403,18.5600196 C54.9742537,17.8663333 54.8958955,17.2106471 55.3279851,16.3299412 C55.4212687,16.1406863 55.5317164,15.9663333 55.6675373,15.8113529 C56.1175373,15.2972353 56.7772388,15.0416667 57.6473881,15.0416667 C58.1809701,15.0416667 58.6257463,15.166098 58.9809701,15.4171961 C59.2085821,15.5781373 59.3988806,15.7897451 59.5518657,16.0527647 C59.7182836,16.3366471 60.0458955,16.4841765 60.3675373,16.4156275 L60.5414179,16.3783725 C60.6876866,16.3470784 60.766791,16.1906078 60.7093284,16.0527647 C60.4794776,15.499902 60.1264925,15.0699804 59.6496269,14.7622549 C59.0988806,14.4075882 58.4347015,14.2295098 57.6585821,14.2295098 C56.5563433,14.2295098 55.6548507,14.5528824 54.9526119,15.1996275 C54.7063433,15.4261373 54.5063433,15.6854314 54.3473881,15.9730392 L54.344403,15.9730392 C54.344403,15.9730392 54.1854478,16.2122157 54.0578358,16.6741765 C54.0496269,16.7039804 54.0421642,16.7345294 54.0347015,16.7650784 C54.0152985,16.8403333 53.9973881,16.9193137 53.9809701,17.005 C53.9720149,17.0541765 53.963806,17.1033529 53.955597,17.1532745 C53.944403,17.2315098 53.9339552,17.3134706 53.925,17.399902 C53.9212687,17.4401373 53.916791,17.4818627 53.913806,17.5235882 C53.9085821,17.6048039 53.9033582,17.6875098 53.9011194,17.7746863 C53.8727612,18.9534314 53.2279851,19.8229608 52.9847015,20.0666078 C52.4824627,20.5740196 51.8272388,20.8288431 51.0182836,20.8288431 C50.2130597,20.8288431 49.5585821,20.5717843 49.0541045,20.0591569 C48.5503731,19.5450392 48.2981343,18.8729608 48.2981343,18.0421765 C48.2981343,17.0258627 48.555597,16.2710784 49.0705224,15.7793137 C49.5854478,15.287549 50.2421642,15.0416667 51.0399254,15.0416667 C51.8160448,15.0416667 52.4600746,15.2920196 52.9742537,15.7934706 C53.1496269,15.9655882 53.2929104,16.1637843 53.4070896,16.3873137 C53.4630597,16.496098 53.616791,16.4849216 53.6548507,16.3694314 C53.7302239,16.1347255 53.8212687,15.9357843 53.9145522,15.7681373 C53.9921642,15.6302941 53.9742537,15.4596667 53.8652985,15.3456667 C53.8347015,15.3136275 53.8033582,15.2823333 53.7705224,15.2517843 C53.0600746,14.5707647 52.1458955,14.2295098 51.0287313,14.2295098 C49.8973881,14.2295098 48.9772388,14.5677843 48.2682836,15.2435882 C47.5593284,15.9201373 47.2048507,16.8462941 47.2048507,18.0228039 C47.2048507,19.0331569 47.5541045,19.8885294 48.2541045,20.5889216 C48.9541045,21.2900588 49.8794776,21.6402549 51.0287313,21.6402549 C52.086194,21.6402549 52.9623134,21.329549 53.6615672,20.7148431 L53.6645522,20.7178235 C53.6645522,20.7178235 53.8578358,20.569549 54.0936567,20.2603333 L54.1041045,20.2476667 L54.1033582,20.2476667 C54.3682836,19.8967255 54.6824627,19.3438627 54.8369403,18.5600196 Z" id="Fill-55" fill="#FEFEFE"></path> -->
            </g>
        </g>
    </g>
</svg>